<svg width="111" height="49" viewBox="0 0 111 49" fill="none" xmlns="http://www.w3.org/2000/svg">
<path d="M13.6718 11.5C11.8532 11.5 10.3789 12.8991 10.3789 14.625V25.5625C10.3789 30.2777 13.523 34.296 17.9301 35.8324C16.5944 36.2652 15.162 36.5 13.6718 36.5C6.39724 36.5 0.5 30.9036 0.5 24C0.5 17.0964 6.39724 11.5 13.6718 11.5Z" fill="#D83379"/>
<path d="M17.9301 35.8324C23.1151 34.1524 26.8437 29.4894 26.8437 24C26.8437 17.0964 20.9465 11.5 13.6719 11.5C11.8532 11.5 10.3789 12.8991 10.3789 14.625V25.5625C10.3789 30.2777 13.523 34.296 17.9301 35.8324Z" fill="#BF308C"/>
<path d="M17.9301 35.8324C23.1151 34.1523 26.8437 29.4894 26.8437 24C26.8437 17.0964 20.9465 11.5 13.6719 11.5H30.1367C31.9553 11.5 33.4296 12.8991 33.4296 14.625V25.5625C33.4296 31.6031 28.2696 36.5 21.9043 36.5C20.5076 36.5 19.169 36.2642 17.9301 35.8324Z" fill="#5E318F"/>
<path d="M45.1894 17.75C46.9131 17.75 48.4096 18.3413 49.6791 19.5239C50.9485 20.7065 51.5832 22.204 51.5832 24.0166C51.5832 25.7076 50.9776 27.172 49.7664 28.4098C48.5552 29.6366 47.0819 30.25 45.3467 30.25C43.5415 30.25 42.0159 29.6421 40.7697 28.4264C39.5352 27.2107 38.918 25.7628 38.918 24.0829C38.918 23.1656 39.0927 22.309 39.442 21.5133C39.7914 20.7065 40.2573 20.0323 40.8396 19.4907C41.4219 18.9492 42.0916 18.5237 42.8486 18.2142C43.6056 17.9047 44.3859 17.75 45.1894 17.75ZM45.2419 27.3156C46.0804 27.3156 46.8316 27.0172 47.4954 26.4204C48.1592 25.8236 48.4911 25.0168 48.4911 24C48.4911 23.0053 48.1534 22.204 47.4779 21.5962C46.8141 20.9883 46.0746 20.6844 45.2593 20.6844C44.4208 20.6844 43.6696 20.9938 43.0058 21.6127C42.3419 22.2206 42.01 23.0219 42.01 24.0166C42.01 24.9892 42.3419 25.7849 43.0058 26.4038C43.6813 27.0117 44.4266 27.3156 45.2419 27.3156Z" fill="#1E1A1A"/>
<path d="M64.989 17.9158C65.35 17.9158 65.6412 17.9489 65.8624 18.0153C66.0837 18.0816 66.2409 18.1976 66.3341 18.3634C66.4273 18.5292 66.4797 18.6784 66.4913 18.811C66.5146 18.9436 66.5263 19.137 66.5263 19.3912V28.5922C66.5263 28.8464 66.5146 29.0398 66.4913 29.1724C66.468 29.294 66.4098 29.4377 66.3166 29.6034C66.2351 29.7582 66.0837 29.8687 65.8624 29.935C65.6412 30.0013 65.3442 30.0345 64.9715 30.0345C64.6687 30.0345 64.4183 30.0069 64.2203 29.9516C64.0223 29.8963 63.8709 29.83 63.7661 29.7527C63.6613 29.6753 63.5798 29.5648 63.5216 29.4211C63.475 29.2664 63.4459 29.1393 63.4342 29.0398C63.4342 28.9293 63.4342 28.769 63.4342 28.559V23.0053C63.143 23.3479 62.718 23.895 62.1589 24.6466C61.5999 25.387 61.1865 25.9176 60.9186 26.2381C60.8837 26.2933 60.8371 26.3596 60.7789 26.437C60.7206 26.5033 60.5751 26.6028 60.3421 26.7354C60.1209 26.857 59.8763 26.9178 59.6084 26.9178C59.3522 26.9178 59.1135 26.8625 58.8922 26.752C58.6826 26.6304 58.5312 26.5144 58.438 26.4038L58.2982 26.2215C58.0653 25.9452 57.6053 25.3594 56.9182 24.4642C56.231 23.5579 55.8584 23.0716 55.8001 23.0053V28.5922C55.8001 28.8464 55.7885 29.0398 55.7652 29.1724C55.7535 29.294 55.7011 29.4377 55.608 29.6034C55.5148 29.7582 55.3576 29.8687 55.1363 29.935C54.915 30.0013 54.618 30.0345 54.2454 30.0345C53.8843 30.0345 53.5932 30.0013 53.3719 29.935C53.1623 29.8687 53.0109 29.7582 52.9177 29.6034C52.8245 29.4377 52.7663 29.2885 52.743 29.1558C52.7314 29.0232 52.7255 28.8243 52.7255 28.559V19.3581C52.7255 19.1039 52.7314 18.916 52.743 18.7944C52.7663 18.6618 52.8245 18.5181 52.9177 18.3634C53.0109 18.1976 53.1681 18.0816 53.3894 18.0153C53.6106 17.9489 53.9076 17.9158 54.2803 17.9158C54.5947 17.9158 54.8626 17.9545 55.0839 18.0318C55.3168 18.0981 55.4682 18.17 55.5381 18.2473L55.6429 18.3468L59.6084 23.2871C61.5883 20.8004 62.9101 19.1592 63.574 18.3634C63.7719 18.065 64.2436 17.9158 64.989 17.9158Z" fill="#1E1A1A"/>
<path d="M77.5864 17.9158C77.8775 17.9158 78.1221 17.9434 78.3201 17.9987C78.5297 18.0539 78.6811 18.1202 78.7743 18.1976C78.8791 18.275 78.9548 18.391 79.0014 18.5458C79.0596 18.6894 79.0887 18.8165 79.0887 18.9271C79.1004 19.0265 79.1062 19.1813 79.1062 19.3912V28.5922C79.1062 28.8574 79.0946 29.0508 79.0713 29.1724C79.0596 29.294 79.0072 29.4377 78.914 29.6034C78.8209 29.7692 78.6636 29.8853 78.4424 29.9516C78.2211 30.0179 77.9241 30.0511 77.5514 30.0511C77.0972 30.0511 76.7828 30.0179 76.6081 29.9516C76.4334 29.8853 76.2878 29.7803 76.1714 29.6366C73.551 26.321 71.8273 24.1547 71.0005 23.1379V28.5922C71.0005 28.8574 70.9888 29.0508 70.9655 29.1724C70.9539 29.294 70.9015 29.4377 70.8083 29.6034C70.7151 29.7692 70.5579 29.8853 70.3366 29.9516C70.1153 30.0179 69.8184 30.0511 69.4457 30.0511C69.0847 30.0511 68.7935 30.0179 68.5722 29.9516C68.3626 29.8853 68.2112 29.7692 68.118 29.6034C68.0248 29.4377 67.9666 29.2885 67.9433 29.1558C67.9317 29.0232 67.9259 28.8298 67.9259 28.5756V19.3249C67.9259 19.0707 67.9375 18.8828 67.9608 18.7613C67.9841 18.6397 68.0365 18.5015 68.118 18.3468C68.2112 18.1921 68.3684 18.0816 68.5897 18.0153C68.811 17.9489 69.1079 17.9158 69.4806 17.9158C69.8067 17.9158 70.0688 17.9489 70.2667 18.0153C70.4764 18.0705 70.622 18.1368 70.7035 18.2142C70.785 18.2805 70.8898 18.391 71.0179 18.5458L71.1053 18.6452C73.5626 21.8172 75.2047 23.9116 76.0316 24.9284V19.3249C76.0316 19.0707 76.0433 18.8828 76.0665 18.7613C76.0898 18.6397 76.1422 18.5015 76.2238 18.3468C76.3169 18.1921 76.4742 18.0816 76.6954 18.0153C76.9167 17.9489 77.2137 17.9158 77.5864 17.9158Z" fill="#1E1A1A"/>
<path d="M80.499 19.3581C80.499 19.1039 80.5048 18.916 80.5164 18.7944C80.5397 18.6618 80.598 18.5126 80.6911 18.3468C80.7843 18.181 80.9415 18.065 81.1628 17.9987C81.3841 17.9324 81.6811 17.8992 82.0537 17.8992C82.3565 17.8992 82.6069 17.9268 82.8049 17.9821C83.0029 18.0374 83.1543 18.1037 83.2591 18.181C83.3639 18.2584 83.4396 18.3744 83.4862 18.5292C83.5444 18.6729 83.5736 18.8 83.5736 18.9105C83.5852 19.0099 83.591 19.1647 83.591 19.3747V28.5922C83.591 28.8574 83.5794 29.0508 83.5561 29.1724C83.5444 29.294 83.492 29.4377 83.3989 29.6034C83.3057 29.7692 83.1485 29.8853 82.9272 29.9516C82.7059 30.0179 82.4089 30.0511 82.0363 30.0511C81.7335 30.0511 81.4831 30.0234 81.2851 29.9682C81.0871 29.9129 80.9357 29.8466 80.8309 29.7692C80.7261 29.6919 80.6445 29.5813 80.5863 29.4377C80.5397 29.2829 80.5106 29.1558 80.499 29.0564C80.499 28.9458 80.499 28.7856 80.499 28.5756V19.3581Z" fill="#1E1A1A"/>
<path d="M90.1391 27.7467H85.9815C85.7835 27.7467 85.6321 27.7412 85.5273 27.7301C85.4224 27.708 85.2943 27.6638 85.1429 27.5975C84.9915 27.5201 84.8809 27.382 84.811 27.183C84.7528 26.9841 84.7237 26.7299 84.7237 26.4204C84.7237 26.111 84.7586 25.8623 84.8285 25.6744C84.8984 25.4865 85.0032 25.3594 85.1429 25.2931C85.2943 25.2157 85.4224 25.1715 85.5273 25.1605C85.6437 25.1384 85.8009 25.1273 85.9989 25.1273H90.1566C90.3546 25.1273 90.506 25.1384 90.6108 25.1605C90.7156 25.1715 90.8437 25.2157 90.9951 25.2931C91.1465 25.3594 91.2514 25.492 91.3096 25.691C91.3795 25.8789 91.4144 26.1275 91.4144 26.437C91.4144 26.7465 91.3795 27.0007 91.3096 27.1996C91.2514 27.3875 91.1524 27.5201 91.0126 27.5975C90.8729 27.6638 90.7447 27.708 90.6283 27.7301C90.5235 27.7412 90.3604 27.7467 90.1391 27.7467Z" fill="#1E1A1A"/>
<path d="M102.291 17.8826C102.594 17.8826 102.844 17.9103 103.042 17.9655C103.24 18.0208 103.392 18.0871 103.496 18.1645C103.601 18.2418 103.677 18.3579 103.724 18.5126C103.782 18.6673 103.811 18.8 103.811 18.9105C103.823 19.0099 103.828 19.1647 103.828 19.3747V24.3813C103.828 25.0886 103.7 25.7849 103.444 26.4702C103.199 27.1554 102.844 27.7854 102.378 28.3601C101.924 28.9237 101.33 29.3824 100.597 29.7361C99.8629 30.0787 99.0476 30.25 98.1509 30.25C97.2657 30.25 96.4563 30.0732 95.7226 29.7195C95.0006 29.3658 94.4124 28.9072 93.9582 28.3435C93.504 27.7688 93.1546 27.1388 92.9101 26.4536C92.6655 25.7573 92.5432 25.0555 92.5432 24.3481V19.3581C92.5432 19.0928 92.549 18.8994 92.5607 18.7779C92.584 18.6452 92.6422 18.496 92.7354 18.3302C92.8285 18.1645 92.9858 18.0484 93.2071 17.9821C93.4283 17.9158 93.7253 17.8826 94.098 17.8826C94.4707 17.8826 94.7676 17.9158 94.9889 17.9821C95.2102 18.0484 95.3616 18.1645 95.4431 18.3302C95.5363 18.496 95.5945 18.6452 95.6178 18.7779C95.6411 18.9105 95.6528 19.1094 95.6528 19.3747V24.3481C95.6528 24.6797 95.6935 25.0057 95.775 25.3263C95.8566 25.6357 95.9847 25.9507 96.1594 26.2712C96.3457 26.5807 96.6136 26.8294 96.9629 27.0172C97.3123 27.2051 97.7258 27.2991 98.2033 27.2991C99.0534 27.2991 99.6882 27.0007 100.107 26.4038C100.527 25.807 100.736 25.1163 100.736 24.3316V19.2586C100.736 19.0155 100.748 18.8331 100.771 18.7115C100.795 18.5789 100.853 18.4408 100.946 18.2971C101.039 18.1534 101.196 18.0484 101.418 17.9821C101.639 17.9158 101.93 17.8826 102.291 17.8826Z" fill="#1E1A1A"/>
<path d="M106.093 18.0977H107.756C107.796 18.0977 107.825 18.0995 107.843 18.1033C107.861 18.1052 107.882 18.1118 107.906 18.1232C107.93 18.1346 107.947 18.1554 107.957 18.1856C107.967 18.2159 107.972 18.2557 107.972 18.3049C107.972 18.3541 107.967 18.3938 107.957 18.4241C107.947 18.4524 107.93 18.4723 107.906 18.4837C107.882 18.495 107.86 18.5026 107.84 18.5064C107.822 18.5083 107.793 18.5092 107.753 18.5092H107.182V19.9369C107.182 19.9804 107.18 20.0126 107.176 20.0334C107.174 20.0542 107.165 20.0788 107.149 20.1072C107.135 20.1337 107.109 20.1526 107.071 20.164C107.033 20.1753 106.984 20.181 106.922 20.181C106.86 20.181 106.81 20.1753 106.772 20.164C106.736 20.1526 106.71 20.1337 106.695 20.1072C106.681 20.0788 106.672 20.0542 106.668 20.0334C106.666 20.0107 106.665 19.9776 106.665 19.9341V18.5092H106.09C106.052 18.5092 106.024 18.5083 106.004 18.5064C105.986 18.5026 105.965 18.495 105.941 18.4837C105.917 18.4723 105.9 18.4515 105.89 18.4212C105.88 18.391 105.875 18.3512 105.875 18.302C105.875 18.2528 105.88 18.214 105.89 18.1856C105.9 18.1554 105.917 18.1346 105.941 18.1232C105.965 18.1118 105.986 18.1052 106.004 18.1033C106.024 18.0995 106.053 18.0977 106.093 18.0977Z" fill="#1E1A1A"/>
<path d="M110.237 18.1033C110.299 18.1033 110.349 18.109 110.387 18.1204C110.424 18.1317 110.451 18.1516 110.467 18.18C110.483 18.2084 110.492 18.2339 110.494 18.2566C110.498 18.2793 110.5 18.3124 110.5 18.3559V19.9312C110.5 19.9747 110.498 20.0079 110.494 20.0306C110.49 20.0514 110.48 20.076 110.464 20.1044C110.45 20.1308 110.424 20.1498 110.387 20.1611C110.349 20.1725 110.298 20.1782 110.234 20.1782C110.182 20.1782 110.139 20.1734 110.105 20.164C110.072 20.1545 110.046 20.1431 110.028 20.1299C110.01 20.1167 109.996 20.0977 109.986 20.0731C109.978 20.0466 109.973 20.0249 109.971 20.0079C109.971 19.9889 109.971 19.9615 109.971 19.9255V18.9747C109.921 19.0334 109.848 19.127 109.753 19.2557C109.657 19.3825 109.586 19.4733 109.54 19.5282C109.534 19.5376 109.526 19.549 109.516 19.5622C109.506 19.5736 109.481 19.5906 109.441 19.6133C109.404 19.6341 109.362 19.6445 109.316 19.6445C109.272 19.6445 109.231 19.6351 109.193 19.6162C109.157 19.5953 109.131 19.5755 109.115 19.5566L109.092 19.5253C109.052 19.478 108.973 19.3777 108.855 19.2245C108.738 19.0693 108.674 18.9861 108.664 18.9747V19.9312C108.664 19.9747 108.662 20.0079 108.658 20.0306C108.656 20.0514 108.647 20.076 108.631 20.1044C108.615 20.1308 108.588 20.1498 108.55 20.1611C108.512 20.1725 108.461 20.1782 108.398 20.1782C108.336 20.1782 108.286 20.1725 108.248 20.1611C108.212 20.1498 108.186 20.1308 108.17 20.1044C108.154 20.076 108.144 20.0504 108.14 20.0277C108.138 20.005 108.137 19.971 108.137 19.9255V18.3503C108.137 18.3067 108.138 18.2746 108.14 18.2538C108.144 18.2311 108.154 18.2065 108.17 18.18C108.186 18.1516 108.213 18.1317 108.251 18.1204C108.289 18.109 108.34 18.1033 108.404 18.1033C108.457 18.1033 108.503 18.11 108.541 18.1232C108.581 18.1346 108.607 18.1469 108.619 18.1601L108.637 18.1771L109.316 19.023C109.655 18.5972 109.881 18.3162 109.995 18.18C110.029 18.1289 110.109 18.1033 110.237 18.1033Z" fill="#1E1A1A"/>
</svg>
